<?xml version="1.0" encoding="UTF-8" standalone="no"?><!-- Generator: Gravit.io --><svg xmlns="http://www.w3.org/2000/svg" xmlns:xlink="http://www.w3.org/1999/xlink" style="isolation:isolate" viewBox="0 0 200 200" width="200pt" height="200pt"><defs><clipPath id="_clipPath_Afdkgkihfx8UR8SmMad9n9XVJ6CcVooP"><rect width="200" height="200"/></clipPath></defs><g clip-path="url(#_clipPath_Afdkgkihfx8UR8SmMad9n9XVJ6CcVooP)"><rect width="200" height="200" style="fill:rgb(0,0,0)" fill-opacity="0"/><g style="mix-blend-mode:multiply;"><rect x="100.549" y="50.047" width="2" height="88" transform="matrix(1,0,0,1,0,0)" fill="none" vector-effect="non-scaling-stroke" stroke-width="1" stroke="rgb(20,110,255)" stroke-linejoin="miter" stroke-linecap="square" stroke-miterlimit="2"/></g><g style="mix-blend-mode:multiply;"><rect x="92.549" y="49.047" width="2" height="100" transform="matrix(0,1,-1,0,192.595,5.498)" fill="none" vector-effect="non-scaling-stroke" stroke-width="1" stroke="rgb(20,110,255)" stroke-linejoin="miter" stroke-linecap="square" stroke-miterlimit="2"/></g><g style="mix-blend-mode:multiply;"><rect x="93.541" y="66.335" width="2" height="69.179" transform="matrix(0.259,0.966,-0.966,0.259,167.558,-16.517)" fill="none" vector-effect="non-scaling-stroke" stroke-width="1" stroke="rgb(20,110,255)" stroke-linejoin="miter" stroke-linecap="square" stroke-miterlimit="2"/></g><g style="mix-blend-mode:multiply;"><rect x="87.881" y="56.987" width="2" height="98.746" transform="matrix(0.5,0.866,-0.866,0.5,136.551,-23.793)" fill="none" vector-effect="non-scaling-stroke" stroke-width="1" stroke="rgb(20,110,255)" stroke-linejoin="miter" stroke-linecap="square" stroke-miterlimit="2"/></g><g style="mix-blend-mode:multiply;"><rect x="101.027" y="53.99" width="2" height="89.158" transform="matrix(0.707,0.707,-0.707,0.707,99.581,-43.274)" fill="none" vector-effect="non-scaling-stroke" stroke-width="1" stroke="rgb(20,110,255)" stroke-linejoin="miter" stroke-linecap="square" stroke-miterlimit="2"/></g><g style="mix-blend-mode:multiply;"><rect x="104.441" y="46.785" width="2" height="91.04" transform="matrix(0.866,0.5,-0.5,0.866,60.279,-40.354)" fill="none" vector-effect="non-scaling-stroke" stroke-width="1" stroke="rgb(20,110,255)" stroke-linejoin="miter" stroke-linecap="square" stroke-miterlimit="2"/></g><g style="mix-blend-mode:multiply;"><rect x="102.033" y="35.242" width="2" height="116.529" transform="matrix(0.966,0.259,-0.259,0.966,27.712,-23.481)" fill="none" vector-effect="non-scaling-stroke" stroke-width="1" stroke="rgb(20,110,255)" stroke-linejoin="miter" stroke-linecap="square" stroke-miterlimit="2"/></g><g style="mix-blend-mode:multiply;"><rect x="98.288" y="42.04" width="2" height="97.14" transform="matrix(0.966,-0.259,0.259,0.966,-20.069,28.785)" fill="none" vector-effect="non-scaling-stroke" stroke-width="1" stroke="rgb(20,110,255)" stroke-linejoin="miter" stroke-linecap="square" stroke-miterlimit="2"/></g><g style="mix-blend-mode:multiply;"><rect x="99.027" y="63.353" width="2" height="66.118" transform="matrix(0.866,-0.5,0.5,0.866,-34.805,62.93)" fill="none" vector-effect="non-scaling-stroke" stroke-width="1" stroke="rgb(20,110,255)" stroke-linejoin="miter" stroke-linecap="square" stroke-miterlimit="2"/></g><g style="mix-blend-mode:multiply;"><rect x="103.8" y="57.395" width="2" height="89.807" transform="matrix(0.707,-0.707,0.707,0.707,-41.64,104.067)" fill="none" vector-effect="non-scaling-stroke" stroke-width="1" stroke="rgb(20,110,255)" stroke-linejoin="miter" stroke-linecap="square" stroke-miterlimit="2"/></g><g style="mix-blend-mode:multiply;"><rect x="112.581" y="55.887" width="2" height="100.213" transform="matrix(0.5,-0.866,0.866,0.5,-35.003,151.361)" fill="none" vector-effect="non-scaling-stroke" stroke-width="1" stroke="rgb(20,110,255)" stroke-linejoin="miter" stroke-linecap="square" stroke-miterlimit="2"/></g><g style="mix-blend-mode:multiply;"><rect x="98.423" y="33.214" width="2" height="130.527" transform="matrix(0.259,-0.966,0.966,0.259,-21.431,169.024)" fill="none" vector-effect="non-scaling-stroke" stroke-width="1" stroke="rgb(20,110,255)" stroke-linejoin="miter" stroke-linecap="square" stroke-miterlimit="2"/></g><g style="mix-blend-mode:multiply;"><rect x="99.05" y="54.629" width="2" height="71.833" transform="matrix(0.985,-0.174,0.174,0.985,-14.203,18.749)" fill="none" vector-effect="non-scaling-stroke" stroke-width="1" stroke="rgb(20,110,255)" stroke-linejoin="miter" stroke-linecap="square" stroke-miterlimit="2"/></g><g style="mix-blend-mode:multiply;"><rect x="100.023" y="43.838" width="2" height="98.395" transform="matrix(0.996,-0.087,0.087,0.996,-7.724,9.159)" fill="none" vector-effect="non-scaling-stroke" stroke-width="1" stroke="rgb(20,110,255)" stroke-linejoin="miter" stroke-linecap="square" stroke-miterlimit="2"/></g><g style="mix-blend-mode:multiply;"><rect x="95.017" y="36.022" width="2" height="95.655" transform="matrix(0.94,-0.342,0.342,0.94,-22.888,37.897)" fill="none" vector-effect="non-scaling-stroke" stroke-width="1" stroke="rgb(20,110,255)" stroke-linejoin="miter" stroke-linecap="square" stroke-miterlimit="2"/></g><g style="mix-blend-mode:multiply;"><rect x="95.725" y="48.527" width="2" height="80.352" transform="matrix(0.906,-0.423,0.423,0.906,-28.425,49.189)" fill="none" vector-effect="non-scaling-stroke" stroke-width="1" stroke="rgb(20,110,255)" stroke-linejoin="miter" stroke-linecap="square" stroke-miterlimit="2"/></g><g style="mix-blend-mode:multiply;"><rect x="108.913" y="61.574" width="2" height="98.835" transform="matrix(0.819,-0.574,0.574,0.819,-43.785,83.116)" fill="none" vector-effect="non-scaling-stroke" stroke-width="1" stroke="rgb(20,110,255)" stroke-linejoin="miter" stroke-linecap="square" stroke-miterlimit="2"/></g><g style="mix-blend-mode:multiply;"><rect x="103.018" y="49.444" width="2" height="105.09" transform="matrix(0.766,-0.643,0.643,0.766,-41.222,90.722)" fill="none" vector-effect="non-scaling-stroke" stroke-width="1" stroke="rgb(20,110,255)" stroke-linejoin="miter" stroke-linecap="square" stroke-miterlimit="2"/></g><g style="mix-blend-mode:multiply;"><rect x="99.887" y="66.582" width="2" height="63.819" transform="matrix(0.643,-0.766,0.766,0.643,-39.411,112.467)" fill="none" vector-effect="non-scaling-stroke" stroke-width="1" stroke="rgb(20,110,255)" stroke-linejoin="miter" stroke-linecap="square" stroke-miterlimit="2"/></g><g style="mix-blend-mode:multiply;"><rect x="102.151" y="60.09" width="2" height="80.156" transform="matrix(0.574,-0.819,0.819,0.574,-38.067,127.21)" fill="none" vector-effect="non-scaling-stroke" stroke-width="1" stroke="rgb(20,110,255)" stroke-linejoin="miter" stroke-linecap="square" stroke-miterlimit="2"/></g><g style="mix-blend-mode:multiply;"><rect x="101.392" y="51.618" width="2" height="95.644" transform="matrix(0.423,-0.906,0.906,0.423,-31.004,150.214)" fill="none" vector-effect="non-scaling-stroke" stroke-width="1" stroke="rgb(20,110,255)" stroke-linejoin="miter" stroke-linecap="square" stroke-miterlimit="2"/></g><g style="mix-blend-mode:multiply;"><rect x="100.638" y="35.174" width="2" height="127.81" transform="matrix(0.342,-0.94,0.94,0.342,-26.228,160.7)" fill="none" vector-effect="non-scaling-stroke" stroke-width="1" stroke="rgb(20,110,255)" stroke-linejoin="miter" stroke-linecap="square" stroke-miterlimit="2"/></g><g style="mix-blend-mode:multiply;"><rect x="101.556" y="37.202" width="2" height="124.044" transform="matrix(0.174,-0.985,0.985,0.174,-12.969,182.992)" fill="none" vector-effect="non-scaling-stroke" stroke-width="1" stroke="rgb(20,110,255)" stroke-linejoin="miter" stroke-linecap="square" stroke-miterlimit="2"/></g><g style="mix-blend-mode:multiply;"><rect x="107.588" y="45.457" width="2" height="108.411" transform="matrix(0.087,-0.996,0.996,0.087,-0.159,199.151)" fill="none" vector-effect="non-scaling-stroke" stroke-width="1" stroke="rgb(20,110,255)" stroke-linejoin="miter" stroke-linecap="square" stroke-miterlimit="2"/></g><g style="mix-blend-mode:multiply;"><rect x="104.953" y="53.92" width="2" height="89.483" transform="matrix(-0.087,-0.996,0.996,-0.087,16.901,212.81)" fill="none" vector-effect="non-scaling-stroke" stroke-width="1" stroke="rgb(20,110,255)" stroke-linejoin="miter" stroke-linecap="square" stroke-miterlimit="2"/></g><g style="mix-blend-mode:multiply;"><rect x="89.255" y="58.749" width="2" height="84.578" transform="matrix(-0.174,-0.985,0.985,-0.174,6.424,207.467)" fill="none" vector-effect="non-scaling-stroke" stroke-width="1" stroke="rgb(20,110,255)" stroke-linejoin="miter" stroke-linecap="square" stroke-miterlimit="2"/></g><g style="mix-blend-mode:multiply;"><rect x="83.563" y="62.655" width="2" height="85.148" transform="matrix(-0.342,-0.94,0.94,-0.342,14.602,220.682)" fill="none" vector-effect="non-scaling-stroke" stroke-width="1" stroke="rgb(20,110,255)" stroke-linejoin="miter" stroke-linecap="square" stroke-miterlimit="2"/></g><g style="mix-blend-mode:multiply;"><rect x="90.427" y="61.588" width="2" height="84.356" transform="matrix(-0.423,-0.906,0.906,-0.423,36.022,230.481)" fill="none" vector-effect="non-scaling-stroke" stroke-width="1" stroke="rgb(20,110,255)" stroke-linejoin="miter" stroke-linecap="square" stroke-miterlimit="2"/></g><g style="mix-blend-mode:multiply;"><rect x="95.346" y="52.509" width="2" height="100.361" transform="matrix(-0.574,-0.819,0.819,-0.574,67.489,240.512)" fill="none" vector-effect="non-scaling-stroke" stroke-width="1" stroke="rgb(20,110,255)" stroke-linejoin="miter" stroke-linecap="square" stroke-miterlimit="2"/></g><g style="mix-blend-mode:multiply;"><rect x="98.085" y="55.416" width="2" height="91.396" transform="matrix(-0.643,-0.766,0.766,-0.643,85.318,242.012)" fill="none" vector-effect="non-scaling-stroke" stroke-width="1" stroke="rgb(20,110,255)" stroke-linejoin="miter" stroke-linecap="square" stroke-miterlimit="2"/></g><g style="mix-blend-mode:multiply;"><rect x="105.71" y="57.005" width="2" height="71.78" transform="matrix(-0.766,-0.643,0.643,-0.766,128.743,232.649)" fill="none" vector-effect="non-scaling-stroke" stroke-width="1" stroke="rgb(20,110,255)" stroke-linejoin="miter" stroke-linecap="square" stroke-miterlimit="2"/></g><g style="mix-blend-mode:multiply;"><rect x="109.882" y="37.99" width="2" height="95.454" transform="matrix(-0.819,-0.574,0.574,-0.819,152.547,219.531)" fill="none" vector-effect="non-scaling-stroke" stroke-width="1" stroke="rgb(20,110,255)" stroke-linejoin="miter" stroke-linecap="square" stroke-miterlimit="2"/></g><g style="mix-blend-mode:multiply;"><rect x="106.987" y="36.474" width="2" height="97.529" transform="matrix(-0.906,-0.423,0.423,-0.906,169.834,208.128)" fill="none" vector-effect="non-scaling-stroke" stroke-width="1" stroke="rgb(20,110,255)" stroke-linejoin="miter" stroke-linecap="square" stroke-miterlimit="2"/></g><g style="mix-blend-mode:multiply;"><rect x="101.61" y="37.166" width="2" height="117.931" transform="matrix(-0.94,-0.342,0.342,-0.94,166.152,221.56)" fill="none" vector-effect="non-scaling-stroke" stroke-width="1" stroke="rgb(20,110,255)" stroke-linejoin="miter" stroke-linecap="square" stroke-miterlimit="2"/></g><g style="mix-blend-mode:multiply;"><rect x="99.913" y="58.73" width="2" height="87.839" transform="matrix(-0.985,-0.174,0.174,-0.985,182.468,221.264)" fill="none" vector-effect="non-scaling-stroke" stroke-width="1" stroke="rgb(20,110,255)" stroke-linejoin="miter" stroke-linecap="square" stroke-miterlimit="2"/></g><g style="mix-blend-mode:multiply;"><rect x="99.935" y="49.103" width="2" height="113.916" transform="matrix(-0.996,-0.087,0.087,-0.996,192.242,220.517)" fill="none" vector-effect="non-scaling-stroke" stroke-width="1" stroke="rgb(20,110,255)" stroke-linejoin="miter" stroke-linecap="square" stroke-miterlimit="2"/></g><g style="mix-blend-mode:multiply;"><circle vector-effect="non-scaling-stroke" cx="101.5485929684945" cy="99.0466001688956" r="22" fill="none" stroke-width="1" stroke="rgb(20,110,255)" stroke-linejoin="miter" stroke-linecap="square" stroke-miterlimit="3"/></g></g></svg>