<?xml version="1.0" encoding="UTF-8" standalone="no"?><!-- Generator: Gravit.io --><svg xmlns="http://www.w3.org/2000/svg" xmlns:xlink="http://www.w3.org/1999/xlink" style="isolation:isolate" viewBox="0 0 450 470" width="450pt" height="470pt"><defs><clipPath id="_clipPath_PFtLgp5g3KZJRGHcogARlhiLSayWOVEP"><rect width="450" height="470"/></clipPath></defs><g clip-path="url(#_clipPath_PFtLgp5g3KZJRGHcogARlhiLSayWOVEP)"><rect width="450" height="470" style="fill:rgb(0,0,0)" fill-opacity="0"/><path d=" M 156.177 203.5 Q 155.677 218 159.177 223.5 Q 181.844 193.833 219.177 194.5 Q 229.177 185.833 230.177 182.5 Q 234.844 180.833 221.177 197.5 Q 210.51 233.167 148.177 270.5 Q 160.51 312.833 184.177 330.5 Q 230.177 298.833 245.177 276.5 Q 246.51 287.5 193.177 332.5 L 278.177 332.5 Q 333.844 270.833 300.177 185.5 Q 276.844 133.833 226.177 130.5 Q 204.51 117.833 193.177 96.5 Q 187.51 118.5 200.177 135.5 L 186.177 140.5 Q 175.51 166.833 138.177 187.5 Q 134.844 209.833 142.177 211.5 Q 149.51 213.167 156.177 203.5 Z " fill="rgb(255,255,255)" vector-effect="non-scaling-stroke" stroke-width="3" stroke="rgb(0,0,0)" stroke-linejoin="miter" stroke-linecap="square" stroke-miterlimit="3"/><path d=" M 230.177 378.5 L 150.177 378.5 Q 146.177 357.833 174.177 356.5 L 179.177 342.5 L 230.177 342.5 L 230.177 342.5" fill="rgb(255,255,255)" vector-effect="non-scaling-stroke" stroke-width="3" stroke="rgb(0,0,0)" stroke-linejoin="miter" stroke-linecap="square" stroke-miterlimit="3"/><path d=" M 229 378.5 L 309 378.5 Q 313 357.833 285 356.5 L 280 342.5 L 229 342.5 L 229 342.5" fill="rgb(255,255,255)" vector-effect="non-scaling-stroke" stroke-width="3" stroke="rgb(0,0,0)" stroke-linejoin="miter" stroke-linecap="square" stroke-miterlimit="3"/><path d=" M 179.177 153.5 Q 218.239 149.25 262.177 140.5 Q 200.677 161.594 168.177 166.5 Q 176.411 157.109 179.177 153.5 Z " fill="rgb(255,82,82)" vector-effect="non-scaling-stroke" stroke-width="2" stroke="rgb(0,0,0)" stroke-linejoin="miter" stroke-linecap="square" stroke-miterlimit="3"/></g></svg>