<svg width="83" height="83" viewBox="0 0 83 83" fill="none" xmlns="http://www.w3.org/2000/svg">
<rect width="83" height="83" rx="24" fill="#DB4437"/>
<path fill-rule="evenodd" clip-rule="evenodd" d="M23.2367 45.1368C21.0276 45.1368 19.1798 46.976 19.9086 49.0615C22.331 55.9937 31.0227 61.1246 41.3735 61.1246C51.7244 61.1246 60.416 55.9937 62.8385 49.0615C63.5672 46.976 61.7195 45.1368 59.5104 45.1368L23.2367 45.1368Z" fill="white"/>
<path fill-rule="evenodd" clip-rule="evenodd" d="M59.7633 38.9877C61.9724 38.9877 63.8202 37.1486 63.0914 35.0631C60.669 28.1308 51.9773 23 41.6265 23C31.2756 23 22.584 28.1308 20.1615 35.0631C19.4328 37.1486 21.2805 38.9877 23.4896 38.9877L59.7633 38.9877Z" fill="white"/>
</svg>
